<?xml version="1.0" encoding="UTF-8"?>
<svg id="uuid-5d591ae1-a9c0-46dd-a2ee-1a9dbd9ff68b" data-name="Calque_1" xmlns="http://www.w3.org/2000/svg" xmlns:xlink="http://www.w3.org/1999/xlink" viewBox="0 0 214.07 217.97">
  <defs>
    <style>
      .uuid-11b79fcb-3bed-4c0d-96ab-6948a857ca9f {
        fill: #fff;
      }

      .uuid-285bf990-123b-41a8-b245-eef92c3cfb46 {
        fill: #78788c;
        filter: url(#uuid-1a04f73f-ed89-4b01-8213-ef625990cf25);
      }
    </style>
    <filter id="uuid-1a04f73f-ed89-4b01-8213-ef625990cf25" data-name="drop-shadow-1" x="6" y="7.51" width="200" height="205" filterUnits="userSpaceOnUse">
      <feOffset dx="0" dy="5"/>
      <feGaussianBlur result="uuid-7b57127b-2bc2-475e-b77a-8088be56b80b" stdDeviation="0"/>
      <feFlood flood-color="#000" flood-opacity=".75"/>
      <feComposite in2="uuid-7b57127b-2bc2-475e-b77a-8088be56b80b" operator="in"/>
      <feComposite in="SourceGraphic"/>
    </filter>
  </defs>
  <path class="uuid-285bf990-123b-41a8-b245-eef92c3cfb46" d="M198.34,7.51H13.66c-4.23,0-7.66,3.43-7.66,7.66v106.44c.42-1.01,1.07-1.97,1.97-2.87,1.69-1.69,3.58-2.54,5.67-2.54h35.34v16.53h-19.23v58.46h19.23v16.32h10.37c-1.42-.34-2.73-1.11-3.94-2.33-1.69-1.69-2.54-3.58-2.54-5.67v-75.1c0-2.09.85-3.98,2.54-5.67s3.58-2.54,5.67-2.54h39.12l3.78,16.53h-26.91v58.46h5.08v-38.69h24.42v47.01c0,2.09-.88,3.98-2.65,5.67-1.26,1.21-2.61,1.98-4.04,2.33h98.45c4.23,0,7.66-3.43,7.66-7.66V15.17c0-4.23-3.43-7.66-7.66-7.66Z"/>
  <g>
    <path class="uuid-11b79fcb-3bed-4c0d-96ab-6948a857ca9f" d="M115.32,201.91c-.78,0-1.45.27-1.99.81-.54.54-.81,1.21-.81,1.99s.27,1.45.81,1.99c.54.54,1.2.81,1.99.81s1.39-.27,1.92-.81c.53-.54.79-1.2.79-1.99s-.26-1.45-.79-1.99-1.17-.81-1.92-.81Z"/>
    <path class="uuid-11b79fcb-3bed-4c0d-96ab-6948a857ca9f" d="M142.87,187.22c-.88-1.45-2.14-2.61-3.79-3.5-1.66-.89-3.45-1.33-5.38-1.33-2.23,0-4.24.53-6.03,1.58-1.79,1.05-3.2,2.54-4.22,4.45-1.02,1.91-1.54,4.13-1.54,6.66s.51,4.73,1.54,6.68c1.02,1.96,2.43,3.48,4.22,4.56,1.79,1.08,3.79,1.63,5.99,1.63s4-.47,5.6-1.42c1.6-.95,2.8-2.16,3.61-3.64v4.65h4.15v-33.43h-4.15v13.1ZM141.74,200.03c-.75,1.4-1.77,2.47-3.05,3.21-1.28.74-2.69,1.11-4.22,1.11s-2.94-.37-4.2-1.11c-1.26-.74-2.27-1.81-3.03-3.21-.75-1.4-1.13-3.05-1.13-4.95s.38-3.49,1.13-4.88c.75-1.38,1.76-2.44,3.03-3.16,1.27-.72,2.67-1.08,4.2-1.08s2.94.37,4.22,1.11c1.28.74,2.3,1.8,3.05,3.18.75,1.39,1.13,3.01,1.13,4.88s-.38,3.5-1.13,4.9Z"/>
    <path class="uuid-11b79fcb-3bed-4c0d-96ab-6948a857ca9f" d="M170.92,183.93c-1.81-1.02-3.88-1.54-6.23-1.54s-4.54.52-6.39,1.56c-1.85,1.04-3.29,2.52-4.31,4.45-1.02,1.93-1.54,4.17-1.54,6.73s.53,4.81,1.58,6.75c1.05,1.94,2.51,3.44,4.36,4.5,1.85,1.05,3.95,1.58,6.3,1.58,2.95,0,5.42-.75,7.41-2.24,1.99-1.49,3.31-3.42,3.97-5.8h-4.43c-.48,1.39-1.32,2.49-2.51,3.32s-2.67,1.24-4.45,1.24c-2.17,0-4.01-.68-5.53-2.05-1.52-1.37-2.36-3.28-2.51-5.71h19.79c.09-.87.13-1.7.13-2.48,0-2.26-.49-4.28-1.47-6.07-.98-1.79-2.37-3.2-4.18-4.22ZM156.69,193.37c.21-2.35,1.05-4.19,2.51-5.51,1.46-1.32,3.23-1.99,5.31-1.99,1.45,0,2.76.29,3.95.88,1.19.59,2.13,1.45,2.82,2.57.69,1.13,1.04,2.48,1.04,4.04h-15.63Z"/>
    <polygon class="uuid-11b79fcb-3bed-4c0d-96ab-6948a857ca9f" points="198.88 182.8 191.2 203.76 183.47 182.8 179.05 182.8 188.76 207.55 193.55 207.55 203.26 182.8 198.88 182.8"/>
  </g>
</svg>